<?xml version="1.0" encoding="utf-8"?>
<!-- Generator: Adobe Illustrator 26.0.0, SVG Export Plug-In . SVG Version: 6.00 Build 0)  -->
<svg version="1.1" id="Layer_1" xmlns="http://www.w3.org/2000/svg" xmlns:xlink="http://www.w3.org/1999/xlink" x="0px" y="0px"
	 viewBox="0 0 1082.9 1080" style="enable-background:new 0 0 1082.9 1080;" xml:space="preserve">
<style type="text/css">
	.st0{clip-path:url(#XMLID_00000178181066339731693390000015126353893052479393_);fill:#01A2FD;}
	.st1{clip-path:url(#XMLID_00000178181066339731693390000015126353893052479393_);fill:#F97707;}
	.st2{clip-path:url(#XMLID_00000178181066339731693390000015126353893052479393_);fill:#014DAF;}
	.st3{fill:#F97707;}
	.st4{fill:#FEC401;}
	.st5{fill:#014DAF;}
	.st6{clip-path:url(#XMLID_00000008109705787190922770000000752505324749103799_);fill:#FEC401;}
	.st7{clip-path:url(#XMLID_00000008109705787190922770000000752505324749103799_);fill:#01A2FD;}
	.st8{clip-path:url(#XMLID_00000008109705787190922770000000752505324749103799_);fill:#014DAF;}
	.st9{clip-path:url(#XMLID_00000008109705787190922770000000752505324749103799_);fill:#F97707;}
</style>
<g>
	<g>
		<g>
			<defs>
				<path id="XMLID_00000167366634541528617810000014012692159801615283_" d="M808.5,197.6c-3,10.3-7.7,20.1-14.7,28.4
					c-14.7,17.7-36.7,27.4-58.5,34.7c-2.6,0.9-5.2,1.8-7.1,3.7c-2.8,2.9-3,7.4-3.3,11.4c-1,13.4-5,26.8-13.3,37.3
					c-8.3,10.5-21.4,17.7-34.8,17c-6.1-0.3-12-2.3-17.8-4c-40.8-12.2-83.5-17.1-126-20.6c-25.6-2.1-51.9-3.9-75.5-14.1
					c-21.3-9.2-48.1-31-46.2-56.6c2.2-30.1-1-61.2,8.8-90.5c2.7-7.9,6.3-15.3,10.3-22.6c-195.3,48.9-340,225.4-340,435.9
					c0,248.2,201.2,449.3,449.3,449.3s449.3-201.2,449.3-449.3C989.1,410.4,918.1,279.5,808.5,197.6z M539.8,788.4
					c-127.4,0-230.6-103.2-230.6-230.6c0-127.4,103.2-230.6,230.6-230.6s230.6,103.2,230.6,230.6
					C770.4,685.1,667.1,788.4,539.8,788.4z"/>
			</defs>
			<use xlink:href="#XMLID_00000167366634541528617810000014012692159801615283_"  style="overflow:visible;fill:#FEC401;"/>
			<clipPath id="XMLID_00000123419156839972805280000006767248455840737666_">
				<use xlink:href="#XMLID_00000167366634541528617810000014012692159801615283_"  style="overflow:visible;"/>
			</clipPath>
			
				<circle style="clip-path:url(#XMLID_00000123419156839972805280000006767248455840737666_);fill:#01A2FD;" cx="714.3" cy="823.5" r="179.1"/>
			
				<circle style="clip-path:url(#XMLID_00000123419156839972805280000006767248455840737666_);fill:#F97707;" cx="201.2" cy="498.9" r="73.3"/>
			
				<circle style="clip-path:url(#XMLID_00000123419156839972805280000006767248455840737666_);fill:#01A2FD;" cx="335.2" cy="681.4" r="133"/>
			
				<circle style="clip-path:url(#XMLID_00000123419156839972805280000006767248455840737666_);fill:#014DAF;" cx="149.3" cy="393.9" r="133"/>
			
				<circle style="clip-path:url(#XMLID_00000123419156839972805280000006767248455840737666_);fill:#F97707;" cx="400" cy="305.6" r="108.6"/>
			
				<circle style="clip-path:url(#XMLID_00000123419156839972805280000006767248455840737666_);fill:#01A2FD;" cx="364" cy="156.6" r="107.6"/>
			
				<circle style="clip-path:url(#XMLID_00000123419156839972805280000006767248455840737666_);fill:#F97707;" cx="886.8" cy="369" r="108.6"/>
			
				<circle style="clip-path:url(#XMLID_00000123419156839972805280000006767248455840737666_);fill:#01A2FD;" cx="864.9" cy="473.5" r="72"/>
			
				<circle style="clip-path:url(#XMLID_00000123419156839972805280000006767248455840737666_);fill:#014DAF;" cx="673.9" cy="305" r="72"/>
			
				<circle style="clip-path:url(#XMLID_00000123419156839972805280000006767248455840737666_);fill:#014DAF;" cx="548.5" cy="167.4" r="51.3"/>
			
				<circle style="clip-path:url(#XMLID_00000123419156839972805280000006767248455840737666_);fill:#F97707;" cx="385.6" cy="897" r="108.6"/>
			
				<circle style="clip-path:url(#XMLID_00000123419156839972805280000006767248455840737666_);fill:#014DAF;" cx="138.7" cy="698.8" r="80.3"/>
			
				<circle style="clip-path:url(#XMLID_00000123419156839972805280000006767248455840737666_);fill:#014DAF;" cx="560.4" cy="933.8" r="146.3"/>
			
				<circle style="clip-path:url(#XMLID_00000123419156839972805280000006767248455840737666_);fill:#014DAF;" cx="843.7" cy="707.3" r="73.3"/>
			
				<circle style="clip-path:url(#XMLID_00000123419156839972805280000006767248455840737666_);fill:#F97707;" cx="1016" cy="594.7" r="73.3"/>
		</g>
		<circle class="st3" cx="679.8" cy="137.3" r="39.4"/>
		<circle class="st4" cx="590.9" cy="89.9" r="23.5"/>
		<circle class="st5" cx="777.3" cy="222.2" r="39.4"/>
	</g>
	<g>
		<defs>
			<path id="XMLID_00000103232355176294507220000010148643860769768101_" d="M539.8,108.4c-248.2,0-449.3,201.2-449.3,449.3
				c0,248.2,201.2,449.3,449.3,449.3s449.3-201.2,449.3-449.3C989.1,309.6,788,108.4,539.8,108.4z M539.8,788.4
				c-127.4,0-230.6-103.2-230.6-230.6s103.2-230.6,230.6-230.6s230.6,103.2,230.6,230.6S667.1,788.4,539.8,788.4z"/>
		</defs>
		<clipPath id="XMLID_00000115513347445587287140000000238980598439841465_">
			<use xlink:href="#XMLID_00000103232355176294507220000010148643860769768101_"  style="overflow:visible;"/>
		</clipPath>
		
			<circle style="clip-path:url(#XMLID_00000115513347445587287140000000238980598439841465_);fill:#FEC401;" cx="557.7" cy="327.2" r="63.1"/>
		
			<circle style="clip-path:url(#XMLID_00000115513347445587287140000000238980598439841465_);fill:#01A2FD;" cx="686.4" cy="324" r="81.6"/>
		
			<circle style="clip-path:url(#XMLID_00000115513347445587287140000000238980598439841465_);fill:#FEC401;" cx="653.9" cy="245.7" r="39.4"/>
		
			<circle style="clip-path:url(#XMLID_00000115513347445587287140000000238980598439841465_);fill:#014DAF;" cx="553.1" cy="188" r="50.7"/>
		
			<circle style="clip-path:url(#XMLID_00000115513347445587287140000000238980598439841465_);fill:#F97707;" cx="399.2" cy="307.5" r="108.6"/>
		
			<circle style="clip-path:url(#XMLID_00000115513347445587287140000000238980598439841465_);fill:#01A2FD;" cx="363.1" cy="158.5" r="107.6"/>
	</g>
</g>
</svg>
